<mxfile host="app.diagrams.net" agent="Mozilla/5.0 (X11; Linux x86_64) AppleWebKit/537.36 (KHTML, like Gecko) Chrome/129.0.0.0 Safari/537.36" version="24.7.17">
  <diagram name="PÃ¡gina-1" id="xfp4CT7QemaBQYsnA7hu">
    <mxGraphModel dx="1434" dy="820" grid="1" gridSize="10" guides="1" tooltips="1" connect="1" arrows="1" fold="1" page="1" pageScale="1" pageWidth="827" pageHeight="1169" math="0" shadow="0">
      <root>
        <mxCell id="0" />
        <mxCell id="1" parent="0" />
        <mxCell id="7Lh0Hz3y1n6FYCdU4KUs-1" value="&lt;b&gt;Datum - Appeal&lt;/b&gt;" style="rounded=1;whiteSpace=wrap;html=1;fillColor=#f5f5f5;fontColor=#333333;strokeColor=#666666;" parent="1" vertex="1">
          <mxGeometry x="280" y="190" width="120" height="40" as="geometry" />
        </mxCell>
        <mxCell id="7Lh0Hz3y1n6FYCdU4KUs-13" style="edgeStyle=orthogonalEdgeStyle;rounded=0;orthogonalLoop=1;jettySize=auto;html=1;exitX=1;exitY=0.5;exitDx=0;exitDy=0;endArrow=circle;endFill=0;" parent="1" source="7Lh0Hz3y1n6FYCdU4KUs-4" edge="1">
          <mxGeometry relative="1" as="geometry">
            <mxPoint x="248" y="260" as="targetPoint" />
            <mxPoint x="203" y="260" as="sourcePoint" />
          </mxGeometry>
        </mxCell>
        <mxCell id="7Lh0Hz3y1n6FYCdU4KUs-4" value="&lt;b&gt;Buyer or Seller&lt;/b&gt;" style="rounded=1;whiteSpace=wrap;html=1;fillColor=#f5f5f5;fontColor=#333333;strokeColor=#666666;" parent="1" vertex="1">
          <mxGeometry x="80" y="240" width="120" height="40" as="geometry" />
        </mxCell>
        <mxCell id="7Lh0Hz3y1n6FYCdU4KUs-9" style="edgeStyle=orthogonalEdgeStyle;rounded=0;orthogonalLoop=1;jettySize=auto;html=1;exitX=0;exitY=0.5;exitDx=0;exitDy=0;startArrow=none;startFill=0;endArrow=oval;endFill=1;" parent="1" source="7Lh0Hz3y1n6FYCdU4KUs-6" edge="1">
          <mxGeometry relative="1" as="geometry">
            <mxPoint x="240" y="260" as="targetPoint" />
          </mxGeometry>
        </mxCell>
        <mxCell id="7Lh0Hz3y1n6FYCdU4KUs-14" style="edgeStyle=orthogonalEdgeStyle;rounded=0;orthogonalLoop=1;jettySize=auto;html=1;exitX=1;exitY=0.5;exitDx=0;exitDy=0;endArrow=circle;endFill=0;" parent="1" source="7Lh0Hz3y1n6FYCdU4KUs-6" edge="1">
          <mxGeometry relative="1" as="geometry">
            <mxPoint x="448" y="260.33333333333337" as="targetPoint" />
            <mxPoint x="403" y="260.31999999999994" as="sourcePoint" />
          </mxGeometry>
        </mxCell>
        <mxCell id="7Lh0Hz3y1n6FYCdU4KUs-6" value="&lt;b&gt;Plutus V3&lt;/b&gt;" style="rounded=1;whiteSpace=wrap;html=1;" parent="1" vertex="1">
          <mxGeometry x="280" y="240" width="120" height="40" as="geometry" />
        </mxCell>
        <mxCell id="7Lh0Hz3y1n6FYCdU4KUs-12" value="&lt;b&gt;&amp;nbsp;120 ADA&lt;/b&gt;" style="rounded=1;whiteSpace=wrap;html=1;" parent="1" vertex="1">
          <mxGeometry x="280" y="320" width="120" height="40" as="geometry" />
        </mxCell>
        <mxCell id="7Lh0Hz3y1n6FYCdU4KUs-15" value="" style="sketch=0;pointerEvents=1;shadow=0;dashed=0;html=1;strokeColor=none;fillColor=#505050;labelPosition=center;verticalLabelPosition=bottom;verticalAlign=top;outlineConnect=0;align=center;shape=mxgraph.office.concepts.clock;" parent="1" vertex="1">
          <mxGeometry x="80" y="125" width="30" height="30" as="geometry" />
        </mxCell>
        <mxCell id="7Lh0Hz3y1n6FYCdU4KUs-16" value="" style="endArrow=classic;html=1;rounded=0;dashed=1;" parent="1" edge="1">
          <mxGeometry width="50" height="50" relative="1" as="geometry">
            <mxPoint x="120" y="140" as="sourcePoint" />
            <mxPoint x="600" y="140" as="targetPoint" />
          </mxGeometry>
        </mxCell>
        <mxCell id="q_ltXLUKzTU_g8hVxN4S-2" value="&lt;b&gt;Signed&lt;/b&gt;" style="rounded=1;whiteSpace=wrap;html=1;" vertex="1" parent="1">
          <mxGeometry x="80" y="320" width="120" height="40" as="geometry" />
        </mxCell>
      </root>
    </mxGraphModel>
  </diagram>
</mxfile>
